<svg 
 xmlns="http://www.w3.org/2000/svg"
 xmlns:xlink="http://www.w3.org/1999/xlink"
 width="1420px" height="1467px">
<defs>
<linearGradient id="PSgrad_0" x1="70.711%" x2="0%" y1="70.711%" y2="0%">
  <stop offset="0%" stop-color="rgb(77,94,210)" stop-opacity="1" />
  <stop offset="100%" stop-color="rgb(169,53,180)" stop-opacity="1" />
</linearGradient>

</defs>
<path fill-rule="evenodd"  fill="rgb(255, 255, 255)"
 d="M1420.000,1436.000 C1420.000,1436.000 1075.000,1337.856 699.184,1426.000 C325.000,1517.975 -0.000,1426.000 -0.000,1426.000 L-0.000,46.000 C-0.000,46.000 220.685,148.438 696.343,46.000 C1172.000,-56.439 1420.000,46.000 1420.000,46.000 L1420.000,1436.000 Z"/>
<path fill="url(#PSgrad_0)"
 d="M1420.000,1436.000 C1420.000,1436.000 1075.000,1337.856 699.184,1426.000 C325.000,1517.975 -0.000,1426.000 -0.000,1426.000 L-0.000,46.000 C-0.000,46.000 220.685,148.438 696.343,46.000 C1172.000,-56.439 1420.000,46.000 1420.000,46.000 L1420.000,1436.000 Z"/>
</svg>