<svg 
 xmlns="http://www.w3.org/2000/svg"
 xmlns:xlink="http://www.w3.org/1999/xlink"
 width="19px" height="18px">
<path fill-rule="evenodd"  fill="rgb(244, 15, 73)"
 d="M11.924,8.982 L17.398,14.460 C18.204,15.267 18.204,16.576 17.398,17.383 C16.591,18.190 15.283,18.190 14.477,17.383 L9.004,11.907 L3.526,17.393 C2.720,18.201 1.413,18.201 0.607,17.393 C-0.200,16.586 -0.200,15.276 0.607,14.469 L6.083,8.984 L0.601,3.498 C-0.205,2.691 -0.205,1.382 0.601,0.575 C1.408,-0.232 2.716,-0.232 3.523,0.575 L9.003,6.059 L14.475,0.579 C15.281,-0.228 16.588,-0.228 17.394,0.579 C18.200,1.387 18.200,2.696 17.394,3.504 L11.924,8.982 Z"/>
</svg>