<svg 
 xmlns="http://www.w3.org/2000/svg"
 xmlns:xlink="http://www.w3.org/1999/xlink"
 width="23px" height="18px">
<path fill-rule="evenodd"  fill="rgb(255, 255, 255)"
 d="M2.000,-0.000 L21.000,-0.000 C22.105,-0.000 23.000,0.895 23.000,2.000 C23.000,3.104 22.105,4.000 21.000,4.000 L2.000,4.000 C0.895,4.000 -0.000,3.104 -0.000,2.000 C-0.000,0.895 0.895,-0.000 2.000,-0.000 Z"/>
<path fill-rule="evenodd"  fill="rgb(255, 255, 255)"
 d="M2.000,7.000 L21.000,7.000 C22.105,7.000 23.000,7.895 23.000,9.000 C23.000,10.104 22.105,11.000 21.000,11.000 L2.000,11.000 C0.895,11.000 -0.000,10.104 -0.000,9.000 C-0.000,7.895 0.895,7.000 2.000,7.000 Z"/>
<path fill-rule="evenodd"  fill="rgb(255, 255, 255)"
 d="M6.000,14.000 L21.000,14.000 C22.105,14.000 23.000,14.895 23.000,16.000 C23.000,17.104 22.105,18.000 21.000,18.000 L6.000,18.000 C4.895,18.000 4.000,17.104 4.000,16.000 C4.000,14.895 4.895,14.000 6.000,14.000 Z"/>
</svg>