<svg xmlns="http://www.w3.org/2000/svg" width="165" height="36" viewBox="0 0 165 36">
  <metadata><?xpacket begin="﻿" id="W5M0MpCehiHzreSzNTczkc9d"?>
<x:xmpmeta xmlns:x="adobe:ns:meta/" x:xmptk="Adobe XMP Core 5.6-c140 79.160451, 2017/05/06-01:08:21        ">
   <rdf:RDF xmlns:rdf="http://www.w3.org/1999/02/22-rdf-syntax-ns#">
      <rdf:Description rdf:about=""/>
   </rdf:RDF>
</x:xmpmeta>
                                                                                                    
                                                                                                    
                                                                                                    
                                                                                                    
                                                                                                    
                                                                                                    
                                                                                                    
                                                                                                    
                                                                                                    
                                                                                                    
                                                                                                    
                                                                                                    
                                                                                                    
                                                                                                    
                                                                                                    
                                                                                                    
                                                                                                    
                                                                                                    
                                                                                                    
                                                                                                    
                           
<?xpacket end="w"?></metadata>
<defs>
    <style>
      .cls-1 {
        fill: #fff;
        fill-rule: evenodd;
      }
    </style>
  </defs>
  <path id="logo" class="cls-1" d="M173.717,58.27c1.285,0,2.117-.634,2.117-1.679a1.246,1.246,0,0,0-.492-1.007,1.912,1.912,0,0,1-.529-1.642V32.862a2.049,2.049,0,0,0-4.081,0v21.3C170.732,57.785,172.508,58.27,173.717,58.27ZM184.865,33.5a2.306,2.306,0,0,0-2.381-2.2,2.258,2.258,0,0,0-2.381,2.2,2.281,2.281,0,0,0,2.381,2.2A2.305,2.305,0,0,0,184.865,33.5Zm-0.34,22.871V40.809a1.971,1.971,0,0,0-2.041-1.865,1.946,1.946,0,0,0-2.041,1.865V56.367a1.9,1.9,0,0,0,2.041,1.865A1.923,1.923,0,0,0,184.525,56.367ZM194.2,32.862A1.945,1.945,0,0,0,192.158,31c-1.7,0-2.041,1.343-2.041,2.8V56.367a1.9,1.9,0,0,0,2.041,1.865c1.587,0,2.04-1.306,2.04-2.686V50.435c0.3-.261.567-0.6,0.87-0.858l4.988,7.089c0.794,1.156,1.021,1.567,2.192,1.567a1.791,1.791,0,0,0,1.965-1.6,2.042,2.042,0,0,0-.34-1.12c-1.965-2.761-3.968-5.522-5.971-8.283L203,42a1.766,1.766,0,0,0,.529-1.269,1.837,1.837,0,0,0-1.965-1.753,2.692,2.692,0,0,0-1.927,1.045L194.2,45.734V32.862ZM212.337,33.5a2.306,2.306,0,0,0-2.381-2.2,2.258,2.258,0,0,0-2.38,2.2,2.281,2.281,0,0,0,2.38,2.2A2.3,2.3,0,0,0,212.337,33.5ZM212,56.367V40.809a1.97,1.97,0,0,0-2.041-1.865,1.946,1.946,0,0,0-2.04,1.865V56.367a1.9,1.9,0,0,0,2.04,1.865A1.922,1.922,0,0,0,212,56.367Zm11.11-17.536c-4.686,0-7.142,2.985-7.142,6.94a6.722,6.722,0,0,0,2.229,5.223,4.213,4.213,0,0,0-1.247,2.873,5.193,5.193,0,0,0,.945,2.985,5.359,5.359,0,0,0-2.192,4.253c0,3.694,3.212,5.895,7.823,5.895,4.8,0,8.314-2.388,8.314-6.23s-3.514-5.6-8.125-5.6h-1.587a1.375,1.375,0,0,1-1.55-1.418,2.9,2.9,0,0,1,.34-1.305,8.007,8.007,0,0,0,2.533.335c5.026,0,7.482-2.91,7.482-6.753v-2.2c-0.037-1.119.3-1.529,1.285-2.5l0.567-.56a1.512,1.512,0,0,0,.454-1.045,1.926,1.926,0,0,0-1.928-1.753,4.105,4.105,0,0,0-3.174,2.127A10.46,10.46,0,0,0,223.107,38.831Zm3.742,6.081v1.194a2.982,2.982,0,0,1-3.326,3.321c-2.456,0-3.477-1.418-3.477-3.582,0-2.35,1.21-3.656,3.59-3.656a6.991,6.991,0,0,1,3.251.9C226.849,43.682,226.849,44.316,226.849,44.913Zm-3.855,13.693h0.794c2.683,0,3.968.709,3.968,2.239,0,1.791-1.739,2.724-4.157,2.724-2.57,0-3.817-1.045-3.817-2.835a2.927,2.927,0,0,1,.982-2.239C221.445,58.531,222.2,58.606,222.994,58.606Zm22.03-15.894a1.875,1.875,0,0,0,2.079-1.9c0-1.045-.605-1.828-2.532-1.828a10.788,10.788,0,0,0-4.951,1.6,2.242,2.242,0,0,0-1.738-1.082,1.836,1.836,0,0,0-1.966,1.754,1.505,1.505,0,0,0,.378,1.008,3.465,3.465,0,0,1,.529,2.164V56.367a1.929,1.929,0,0,0,2.041,1.9,1.951,1.951,0,0,0,2.041-1.9V44.428a7.9,7.9,0,0,0-.076-0.859A6.606,6.606,0,0,1,245.024,42.712ZM259.5,47.189a12.876,12.876,0,0,0-3.4-.448c-4.724,0-7.067,1.9-7.067,5.634v0.112c0,3.47,2.116,5.746,6.236,5.746a7.552,7.552,0,0,0,5.139-1.791,3.3,3.3,0,0,0,3.024,1.679c1.436,0,2.229-.522,2.229-1.567a1.244,1.244,0,0,0-1.133-1.343,0.979,0.979,0,0,1-.945-1.194V46.443c0-4.963-2.079-7.611-7.181-7.611-2.947,0-5.857.783-5.857,2.761a1.519,1.519,0,0,0,1.549,1.642,2.556,2.556,0,0,0,.983-0.187l0.718-.3a5.318,5.318,0,0,1,2.229-.485c2.343,0,3.477,1.082,3.477,3.283v1.642ZM256.209,49.8a15.25,15.25,0,0,1,3.288.41v3.358a5.476,5.476,0,0,1-3.59,1.306c-2.079,0-2.834-.858-2.834-2.35V52.412C253.073,50.994,253.564,49.8,256.209,49.8Zm33.709,6.567a2.049,2.049,0,0,0,4.082,0V45.324c0-3.881-2.5-6.492-6.765-6.492a10.2,10.2,0,0,0-5.593,1.753,5.906,5.906,0,0,0-4.384-1.753,10.232,10.232,0,0,0-5.329,1.642,2.087,2.087,0,0,0-1.738-1.008,1.8,1.8,0,0,0-1.928,1.754,1.863,1.863,0,0,0,.454,1.082c0.227,0.373.491,0.447,0.491,2.089V56.367a2.049,2.049,0,0,0,4.082,0V44.391a6.042,6.042,0,0,0-.076-0.784,7.687,7.687,0,0,1,3.779-1.231c2.192,0,2.57,1.567,2.57,3.768V56.367a2.049,2.049,0,0,0,4.082,0V45.324a7.32,7.32,0,0,0-.151-1.306,5.337,5.337,0,0,1,3.59-1.642,2.758,2.758,0,0,1,2.834,3.022V56.367ZM150.826,31H137.081A8.039,8.039,0,0,0,129,38.974v13.57a8.039,8.039,0,0,0,8.081,7.978h13.745a8.039,8.039,0,0,0,8.081-7.978V38.974A8.039,8.039,0,0,0,150.826,31Zm-0.89,15.3-5.7,6.024a0.412,0.412,0,0,1-.576,0l-5.686-6.033a3.839,3.839,0,0,1-.006-5.5,4,4,0,0,1,5.593.006l0.4,0.39,0.391-.384a4,4,0,0,1,5.593,0A3.853,3.853,0,0,1,149.936,46.3Zm2.282-7a1.956,1.956,0,1,1,1.968-1.956A1.962,1.962,0,0,1,152.218,39.3Z" transform="translate(-129 -31)"/>
</svg>
