<svg 
 xmlns="http://www.w3.org/2000/svg"
 xmlns:xlink="http://www.w3.org/1999/xlink"
 width="49px" height="55px">
<defs>
<linearGradient id="PSgrad_0" x1="0%" x2="100%" y1="0%" y2="0%">
  <stop offset="0%" stop-color="rgb(169,53,180)" stop-opacity="1" />
  <stop offset="100%" stop-color="rgb(77,94,210)" stop-opacity="1" />
</linearGradient>

</defs>
<path fill-rule="evenodd"  fill="rgb(0, 0, 0)"
 d="M46.043,12.290 C45.527,12.290 45.057,12.100 44.682,11.721 L43.790,10.819 L41.866,12.765 C46.278,17.226 49.000,23.442 49.000,30.228 C49.000,43.895 38.017,55.000 24.500,55.000 C10.983,55.000 -0.000,43.895 -0.000,30.228 C-0.000,17.226 9.950,6.548 22.623,5.552 L22.623,3.891 L18.070,3.891 C16.990,3.891 16.146,3.036 16.146,1.945 C16.146,0.854 16.990,-0.000 18.070,-0.000 L30.742,-0.000 C31.822,-0.000 32.667,0.854 32.667,1.945 C32.667,3.036 31.822,3.891 30.742,3.891 L26.471,3.891 L26.471,5.552 C31.165,5.931 35.436,7.592 39.003,10.250 L41.115,8.114 L40.223,7.213 C39.472,6.453 39.472,5.219 40.223,4.460 C40.974,3.701 42.194,3.701 42.945,4.460 L47.404,8.968 C48.155,9.727 48.155,10.961 47.404,11.721 C47.029,12.100 46.559,12.290 46.043,12.290 ZM24.500,9.348 C13.095,9.348 3.802,18.697 3.802,30.276 C3.802,41.807 13.095,51.203 24.500,51.203 C35.905,51.203 45.198,41.807 45.198,30.276 C45.198,18.744 35.905,9.348 24.500,9.348 ZM32.714,31.842 L24.500,31.842 C23.420,31.842 22.576,30.987 22.576,29.943 L22.576,17.937 C22.576,16.846 23.420,15.992 24.500,15.992 C25.579,15.992 26.424,16.846 26.424,17.937 L26.424,27.950 L32.714,27.950 C33.793,27.950 34.638,28.804 34.638,29.896 C34.638,30.987 33.793,31.842 32.714,31.842 Z"/>
<path fill="url(#PSgrad_0)"
 d="M46.043,12.290 C45.527,12.290 45.057,12.100 44.682,11.721 L43.790,10.819 L41.866,12.765 C46.278,17.226 49.000,23.442 49.000,30.228 C49.000,43.895 38.017,55.000 24.500,55.000 C10.983,55.000 -0.000,43.895 -0.000,30.228 C-0.000,17.226 9.950,6.548 22.623,5.552 L22.623,3.891 L18.070,3.891 C16.990,3.891 16.146,3.036 16.146,1.945 C16.146,0.854 16.990,-0.000 18.070,-0.000 L30.742,-0.000 C31.822,-0.000 32.667,0.854 32.667,1.945 C32.667,3.036 31.822,3.891 30.742,3.891 L26.471,3.891 L26.471,5.552 C31.165,5.931 35.436,7.592 39.003,10.250 L41.115,8.114 L40.223,7.213 C39.472,6.453 39.472,5.219 40.223,4.460 C40.974,3.701 42.194,3.701 42.945,4.460 L47.404,8.968 C48.155,9.727 48.155,10.961 47.404,11.721 C47.029,12.100 46.559,12.290 46.043,12.290 ZM24.500,9.348 C13.095,9.348 3.802,18.697 3.802,30.276 C3.802,41.807 13.095,51.203 24.500,51.203 C35.905,51.203 45.198,41.807 45.198,30.276 C45.198,18.744 35.905,9.348 24.500,9.348 ZM32.714,31.842 L24.500,31.842 C23.420,31.842 22.576,30.987 22.576,29.943 L22.576,17.937 C22.576,16.846 23.420,15.992 24.500,15.992 C25.579,15.992 26.424,16.846 26.424,17.937 L26.424,27.950 L32.714,27.950 C33.793,27.950 34.638,28.804 34.638,29.896 C34.638,30.987 33.793,31.842 32.714,31.842 Z"/>
</svg>