<svg 
 xmlns="http://www.w3.org/2000/svg"
 xmlns:xlink="http://www.w3.org/1999/xlink"
 width="43px" height="52px">
<defs>
<linearGradient id="PSgrad_0" x1="0%" x2="100%" y1="0%" y2="0%">
  <stop offset="0%" stop-color="rgb(169,53,180)" stop-opacity="1" />
  <stop offset="100%" stop-color="rgb(77,94,210)" stop-opacity="1" />
</linearGradient>

</defs>
<path fill-rule="evenodd"  fill="rgb(0, 0, 0)"
 d="M39.670,36.617 C37.941,39.540 35.545,42.333 32.550,44.920 C27.514,49.270 22.527,51.538 22.317,51.632 L21.500,52.000 L20.683,51.632 C20.473,51.538 15.486,49.270 10.450,44.920 C7.454,42.333 5.059,39.540 3.330,36.617 C1.120,32.880 -0.000,28.932 -0.000,24.882 L-0.000,12.622 C-0.000,9.668 2.094,7.143 4.979,6.620 C9.850,5.738 14.336,3.047 16.577,1.523 C18.040,0.526 19.743,-0.001 21.500,-0.001 C23.257,-0.001 24.959,0.526 26.423,1.523 C28.664,3.047 33.150,5.738 38.021,6.620 C40.906,7.143 43.000,9.668 43.000,12.623 L43.000,24.882 C43.000,28.932 41.879,32.880 39.670,36.617 ZM38.981,12.622 C38.981,11.638 38.279,10.796 37.312,10.620 C31.716,9.606 26.682,6.597 24.179,4.894 C23.381,4.351 22.455,4.063 21.500,4.063 C20.545,4.063 19.619,4.351 18.821,4.894 C16.318,6.597 11.284,9.607 5.688,10.621 C4.721,10.796 4.019,11.638 4.019,12.623 L4.019,24.882 C4.019,37.712 17.945,45.690 21.500,47.517 C23.047,46.723 26.558,44.766 30.016,41.764 C35.965,36.600 38.981,30.920 38.981,24.882 L38.981,12.622 ZM10.068,25.719 L12.839,22.776 L19.344,29.038 L31.056,15.849 L34.046,18.565 L19.569,34.865 L10.068,25.719 Z"/>
<path fill="url(#PSgrad_0)"
 d="M39.670,36.617 C37.941,39.540 35.545,42.333 32.550,44.920 C27.514,49.270 22.527,51.538 22.317,51.632 L21.500,52.000 L20.683,51.632 C20.473,51.538 15.486,49.270 10.450,44.920 C7.454,42.333 5.059,39.540 3.330,36.617 C1.120,32.880 -0.000,28.932 -0.000,24.882 L-0.000,12.622 C-0.000,9.668 2.094,7.143 4.979,6.620 C9.850,5.738 14.336,3.047 16.577,1.523 C18.040,0.526 19.743,-0.001 21.500,-0.001 C23.257,-0.001 24.959,0.526 26.423,1.523 C28.664,3.047 33.150,5.738 38.021,6.620 C40.906,7.143 43.000,9.668 43.000,12.623 L43.000,24.882 C43.000,28.932 41.879,32.880 39.670,36.617 ZM38.981,12.622 C38.981,11.638 38.279,10.796 37.312,10.620 C31.716,9.606 26.682,6.597 24.179,4.894 C23.381,4.351 22.455,4.063 21.500,4.063 C20.545,4.063 19.619,4.351 18.821,4.894 C16.318,6.597 11.284,9.607 5.688,10.621 C4.721,10.796 4.019,11.638 4.019,12.623 L4.019,24.882 C4.019,37.712 17.945,45.690 21.500,47.517 C23.047,46.723 26.558,44.766 30.016,41.764 C35.965,36.600 38.981,30.920 38.981,24.882 L38.981,12.622 ZM10.068,25.719 L12.839,22.776 L19.344,29.038 L31.056,15.849 L34.046,18.565 L19.569,34.865 L10.068,25.719 Z"/>
</svg>