<svg 
 xmlns="http://www.w3.org/2000/svg"
 xmlns:xlink="http://www.w3.org/1999/xlink"
 width="54px" height="54px">
<defs>
<linearGradient id="PSgrad_0" x1="0%" x2="100%" y1="0%" y2="0%">
  <stop offset="0%" stop-color="rgb(169,53,180)" stop-opacity="1" />
  <stop offset="100%" stop-color="rgb(77,94,210)" stop-opacity="1" />
</linearGradient>

</defs>
<path fill-rule="evenodd"  fill="rgb(0, 0, 0)"
 d="M42.993,34.443 C42.046,35.391 40.948,36.263 39.812,37.098 C39.906,41.436 38.228,45.594 35.120,48.701 L31.936,51.884 C31.064,52.756 29.706,52.762 28.842,51.898 C27.978,51.034 28.022,49.638 28.893,48.842 L32.077,45.659 C33.669,44.067 34.734,42.101 35.234,39.948 C33.381,40.899 31.339,41.738 29.148,42.427 C28.355,42.619 27.488,42.434 26.924,41.871 L21.101,36.049 L18.600,38.550 C17.728,39.421 16.370,39.427 15.505,38.563 C14.641,37.699 14.647,36.341 15.519,35.469 L18.020,32.968 L12.235,27.184 C11.634,26.583 11.411,25.754 11.679,24.960 C12.406,22.732 13.245,20.615 14.197,18.762 C12.044,19.262 10.001,20.327 8.372,21.957 L5.188,25.140 C4.316,26.012 2.958,26.018 2.094,25.154 C1.230,24.290 1.236,22.931 2.107,22.060 L5.291,18.877 C8.437,15.732 12.632,14.091 17.009,14.147 C17.806,13.050 18.679,12.027 19.626,11.080 C30.390,0.318 50.955,0.039 51.823,-0.003 C52.427,-0.006 52.954,0.218 53.368,0.632 C53.781,1.045 54.005,1.572 54.002,2.176 C54.036,3.043 53.795,23.643 42.993,34.443 ZM22.707,14.160 C21.759,15.107 20.886,16.205 20.051,17.416 C19.975,17.567 19.899,17.718 19.785,17.832 C18.456,19.838 17.275,22.295 16.282,25.016 L21.091,29.824 L23.592,27.323 C24.464,26.451 25.822,26.445 26.686,27.309 C27.550,28.173 27.544,29.531 26.673,30.403 L24.171,32.904 L29.055,37.787 C33.628,36.145 37.298,33.978 39.913,31.363 C47.455,23.822 49.138,9.969 49.502,4.497 C44.067,4.898 30.211,6.657 22.707,14.160 ZM30.134,24.012 C27.054,20.932 27.114,15.914 30.184,12.844 C33.253,9.774 38.272,9.715 41.353,12.795 C44.433,15.875 44.411,20.855 41.304,23.963 C38.196,27.070 33.215,27.092 30.134,24.012 ZM38.207,15.940 C36.855,14.588 34.628,14.560 33.226,15.962 C31.824,17.364 31.852,19.590 33.204,20.942 C34.594,22.332 36.783,22.323 38.185,20.920 C39.587,19.518 39.560,17.292 38.207,15.940 ZM8.949,27.991 C9.813,28.855 9.807,30.213 8.935,31.084 L3.743,36.276 C2.871,37.147 1.513,37.154 0.649,36.289 C-0.215,35.426 -0.209,34.068 0.662,33.196 L5.855,28.004 C6.726,27.133 8.085,27.127 8.949,27.991 ZM22.910,45.057 C23.782,44.186 25.140,44.180 26.004,45.044 C26.869,45.908 26.863,47.266 25.991,48.138 L20.799,53.329 C19.927,54.201 18.531,54.169 17.704,53.343 C16.840,52.479 16.846,51.121 17.718,50.249 L22.910,45.057 Z"/>
<path fill="url(#PSgrad_0)"
 d="M42.993,34.443 C42.046,35.391 40.948,36.263 39.812,37.098 C39.906,41.436 38.228,45.594 35.120,48.701 L31.936,51.884 C31.064,52.756 29.706,52.762 28.842,51.898 C27.978,51.034 28.022,49.638 28.893,48.842 L32.077,45.659 C33.669,44.067 34.734,42.101 35.234,39.948 C33.381,40.899 31.339,41.738 29.148,42.427 C28.355,42.619 27.488,42.434 26.924,41.871 L21.101,36.049 L18.600,38.550 C17.728,39.421 16.370,39.427 15.505,38.563 C14.641,37.699 14.647,36.341 15.519,35.469 L18.020,32.968 L12.235,27.184 C11.634,26.583 11.411,25.754 11.679,24.960 C12.406,22.732 13.245,20.615 14.197,18.762 C12.044,19.262 10.001,20.327 8.372,21.957 L5.188,25.140 C4.316,26.012 2.958,26.018 2.094,25.154 C1.230,24.290 1.236,22.931 2.107,22.060 L5.291,18.877 C8.437,15.732 12.632,14.091 17.009,14.147 C17.806,13.050 18.679,12.027 19.626,11.080 C30.390,0.318 50.955,0.039 51.823,-0.003 C52.427,-0.006 52.954,0.218 53.368,0.632 C53.781,1.045 54.005,1.572 54.002,2.176 C54.036,3.043 53.795,23.643 42.993,34.443 ZM22.707,14.160 C21.759,15.107 20.886,16.205 20.051,17.416 C19.975,17.567 19.899,17.718 19.785,17.832 C18.456,19.838 17.275,22.295 16.282,25.016 L21.091,29.824 L23.592,27.323 C24.464,26.451 25.822,26.445 26.686,27.309 C27.550,28.173 27.544,29.531 26.673,30.403 L24.171,32.904 L29.055,37.787 C33.628,36.145 37.298,33.978 39.913,31.363 C47.455,23.822 49.138,9.969 49.502,4.497 C44.067,4.898 30.211,6.657 22.707,14.160 ZM30.134,24.012 C27.054,20.932 27.114,15.914 30.184,12.844 C33.253,9.774 38.272,9.715 41.353,12.795 C44.433,15.875 44.411,20.855 41.304,23.963 C38.196,27.070 33.215,27.092 30.134,24.012 ZM38.207,15.940 C36.855,14.588 34.628,14.560 33.226,15.962 C31.824,17.364 31.852,19.590 33.204,20.942 C34.594,22.332 36.783,22.323 38.185,20.920 C39.587,19.518 39.560,17.292 38.207,15.940 ZM8.949,27.991 C9.813,28.855 9.807,30.213 8.935,31.084 L3.743,36.276 C2.871,37.147 1.513,37.154 0.649,36.289 C-0.215,35.426 -0.209,34.068 0.662,33.196 L5.855,28.004 C6.726,27.133 8.085,27.127 8.949,27.991 ZM22.910,45.057 C23.782,44.186 25.140,44.180 26.004,45.044 C26.869,45.908 26.863,47.266 25.991,48.138 L20.799,53.329 C19.927,54.201 18.531,54.169 17.704,53.343 C16.840,52.479 16.846,51.121 17.718,50.249 L22.910,45.057 Z"/>
</svg>