<svg 
 xmlns="http://www.w3.org/2000/svg"
 xmlns:xlink="http://www.w3.org/1999/xlink"
 width="51px" height="49px">
<defs>
<linearGradient id="PSgrad_0" x1="0%" x2="100%" y1="0%" y2="0%">
  <stop offset="0%" stop-color="rgb(169,53,180)" stop-opacity="1" />
  <stop offset="100%" stop-color="rgb(77,94,210)" stop-opacity="1" />
</linearGradient>

</defs>
<path fill-rule="evenodd"  fill="rgb(0, 0, 0)"
 d="M49.848,22.340 C50.892,21.320 51.261,19.823 50.810,18.433 C50.360,17.043 49.183,16.049 47.740,15.839 L35.123,14.001 C34.876,13.965 34.662,13.809 34.551,13.584 L28.908,2.124 C28.263,0.813 26.957,-0.000 25.498,-0.000 C24.040,-0.000 22.734,0.813 22.089,2.124 L16.446,13.584 C16.335,13.809 16.121,13.965 15.873,14.001 L3.257,15.839 C1.814,16.049 0.638,17.043 0.187,18.433 C-0.264,19.823 0.105,21.320 1.149,22.340 L10.279,31.260 C10.458,31.436 10.540,31.688 10.498,31.936 L8.342,44.531 C8.096,45.972 8.675,47.400 9.855,48.259 C11.035,49.118 12.569,49.229 13.860,48.549 L25.145,42.603 C25.366,42.486 25.631,42.486 25.853,42.603 L37.137,48.549 C37.699,48.845 38.306,48.991 38.910,48.991 C39.695,48.991 40.476,48.745 41.142,48.259 C42.321,47.400 42.901,45.971 42.655,44.531 L40.499,31.935 C40.457,31.688 40.539,31.436 40.718,31.260 L49.848,22.340 ZM36.338,31.654 L38.284,42.986 C38.349,43.365 38.115,43.581 38.011,43.657 C37.907,43.732 37.628,43.888 37.287,43.709 L27.097,38.358 C26.596,38.096 26.048,37.964 25.499,37.964 C24.950,37.964 24.401,38.096 23.901,38.358 L13.710,43.709 C13.369,43.887 13.091,43.732 12.987,43.656 C12.883,43.581 12.649,43.365 12.714,42.986 L14.660,31.654 C14.851,30.541 14.482,29.406 13.672,28.618 L5.428,20.592 C5.152,20.324 5.215,20.011 5.254,19.889 C5.294,19.767 5.427,19.478 5.809,19.422 L17.202,17.769 C18.321,17.607 19.287,16.906 19.788,15.893 L24.883,5.583 C25.054,5.238 25.370,5.200 25.499,5.200 C25.627,5.200 25.944,5.238 26.115,5.583 L26.115,5.583 L31.210,15.893 C31.710,16.906 32.677,17.607 33.795,17.769 L45.189,19.423 C45.570,19.478 45.704,19.767 45.743,19.889 C45.783,20.011 45.846,20.324 45.570,20.592 L37.325,28.618 C36.516,29.406 36.147,30.541 36.338,31.654 Z"/>
<path fill="url(#PSgrad_0)"
 d="M49.848,22.340 C50.892,21.320 51.261,19.823 50.810,18.433 C50.360,17.043 49.183,16.049 47.740,15.839 L35.123,14.001 C34.876,13.965 34.662,13.809 34.551,13.584 L28.908,2.124 C28.263,0.813 26.957,-0.000 25.498,-0.000 C24.040,-0.000 22.734,0.813 22.089,2.124 L16.446,13.584 C16.335,13.809 16.121,13.965 15.873,14.001 L3.257,15.839 C1.814,16.049 0.638,17.043 0.187,18.433 C-0.264,19.823 0.105,21.320 1.149,22.340 L10.279,31.260 C10.458,31.436 10.540,31.688 10.498,31.936 L8.342,44.531 C8.096,45.972 8.675,47.400 9.855,48.259 C11.035,49.118 12.569,49.229 13.860,48.549 L25.145,42.603 C25.366,42.486 25.631,42.486 25.853,42.603 L37.137,48.549 C37.699,48.845 38.306,48.991 38.910,48.991 C39.695,48.991 40.476,48.745 41.142,48.259 C42.321,47.400 42.901,45.971 42.655,44.531 L40.499,31.935 C40.457,31.688 40.539,31.436 40.718,31.260 L49.848,22.340 ZM36.338,31.654 L38.284,42.986 C38.349,43.365 38.115,43.581 38.011,43.657 C37.907,43.732 37.628,43.888 37.287,43.709 L27.097,38.358 C26.596,38.096 26.048,37.964 25.499,37.964 C24.950,37.964 24.401,38.096 23.901,38.358 L13.710,43.709 C13.369,43.887 13.091,43.732 12.987,43.656 C12.883,43.581 12.649,43.365 12.714,42.986 L14.660,31.654 C14.851,30.541 14.482,29.406 13.672,28.618 L5.428,20.592 C5.152,20.324 5.215,20.011 5.254,19.889 C5.294,19.767 5.427,19.478 5.809,19.422 L17.202,17.769 C18.321,17.607 19.287,16.906 19.788,15.893 L24.883,5.583 C25.054,5.238 25.370,5.200 25.499,5.200 C25.627,5.200 25.944,5.238 26.115,5.583 L26.115,5.583 L31.210,15.893 C31.710,16.906 32.677,17.607 33.795,17.769 L45.189,19.423 C45.570,19.478 45.704,19.767 45.743,19.889 C45.783,20.011 45.846,20.324 45.570,20.592 L37.325,28.618 C36.516,29.406 36.147,30.541 36.338,31.654 Z"/>
</svg>